<?xml version="1.0" encoding="iso-8859-1"?>
<!-- Generator: Adobe Illustrator 19.0.0, SVG Export Plug-In . SVG Version: 6.00 Build 0)  -->
<svg version="1.1" id="Layer_1" xmlns="http://www.w3.org/2000/svg" xmlns:xlink="http://www.w3.org/1999/xlink" x="0px" y="0px"
	 viewBox="0 0 512 512" style="enable-background:new 0 0 512 512;" xml:space="preserve">
<g>
	<g>
		<path d="M508.25,247.875L303.042,73.448C295.854,67.354,286.729,64,277.313,64h-2.917c-21.917,0-39.729,17.823-39.729,39.719
			c0,11.823,5.208,22.948,14.292,30.521l94.917,79.094H42.667C19.146,213.333,0,232.469,0,256s19.146,42.667,42.667,42.667h301.208
			l-94.917,79.094c-9.083,7.573-14.292,18.698-14.292,30.521c0,21.896,17.813,39.719,39.729,39.719h2.917
			c9.417,0,18.542-3.354,25.75-9.458L508.25,264.125c2.375-2.021,3.75-5,3.75-8.125S510.625,249.896,508.25,247.875z
			 M289.25,422.281c-3.333,2.823-7.583,4.385-11.938,4.385h-2.917c-10.146,0-18.396-8.25-18.396-18.385
			c0-5.469,2.417-10.625,6.625-14.125l117.542-97.958c3.438-2.875,4.729-7.604,3.188-11.833c-1.521-4.219-5.521-7.031-10.021-7.031
			H42.667c-11.771,0-21.333-9.573-21.333-21.333s9.563-21.333,21.333-21.333h330.667c4.5,0,8.5-2.813,10.021-7.031
			c1.542-4.229,0.25-8.958-3.188-11.833l-117.542-97.958c-4.208-3.5-6.625-8.656-6.625-14.125c0-10.135,8.25-18.385,18.396-18.385
			h2.917c4.354,0,8.604,1.563,11.917,4.375L484.854,256L289.25,422.281z"/>
	</g>
</g>
<g>
</g>
<g>
</g>
<g>
</g>
<g>
</g>
<g>
</g>
<g>
</g>
<g>
</g>
<g>
</g>
<g>
</g>
<g>
</g>
<g>
</g>
<g>
</g>
<g>
</g>
<g>
</g>
<g>
</g>
</svg>
